Coordinates
version=1
nRows=21
nColumns=12
inDegrees=yes

Units are S.I. units (second, meters, Newtons, ...)
Angles are in degrees

endheader
time	SC_y	SC_z	SC_x	AC_y	AC_z	AC_x	GH_y	GH_z	GH_yy	EL_x	PS_y
       0.0              -53.12          25.33          81.37          32.72         0.6662        -0.4644          48.78          25.73         -68.68          80.11          72.66
   0.02978              -53.12          25.33          81.36          32.72         0.6673        -0.4648          48.77          25.73         -68.66          80.11          72.67
   0.05955              -53.11          25.33          81.36          32.73         0.6685        -0.4651          48.75          25.74         -68.64          80.11          72.67
   0.08933              -53.11          25.32          81.35          32.73         0.6697        -0.4655          48.74          25.74         -68.62          80.11          72.67
    0.1191               -53.1          25.32          81.34          32.74          0.671        -0.4659          48.72          25.75          -68.6          80.11          72.67
    0.1489               -53.1          25.32          81.34          32.75         0.6724        -0.4664           48.7          25.76         -68.58          80.11          72.67
    0.1787              -53.09          25.32          81.33          32.75         0.6739        -0.4668          48.68          25.76         -68.55          80.11          72.67
    0.2084              -53.08          25.32          81.32          32.76         0.6755        -0.4674          48.66          25.77         -68.53          80.11          72.67
    0.2382              -53.08          25.32          81.31          32.77         0.6773        -0.4679          48.63          25.78          -68.5          80.11          72.68
     0.268              -53.07          25.31           81.3          32.77         0.6791        -0.4685          48.61          25.79         -68.47          80.11          72.68
    0.2978              -53.06          25.31          81.29          32.78         0.6811        -0.4691          48.58           25.8         -68.44          80.11          72.68
    0.3275              -53.05          25.31          81.27          32.79         0.6832        -0.4698          48.55          25.81          -68.4          80.11          72.68
    0.3573              -53.04          25.31          81.26           32.8         0.6855        -0.4705          48.52          25.82         -68.37          80.11          72.68
    0.3871              -53.03           25.3          81.25          32.81          0.688        -0.4713          48.49          25.83         -68.33          80.11          72.69
    0.4169              -53.01           25.3          81.23          32.82         0.6907        -0.4721          48.45          25.84         -68.28          80.11          72.69
    0.4466               -53.0           25.3          81.22          32.84         0.6936         -0.473          48.41          25.86         -68.24          80.12          72.69
    0.4764              -52.99          25.29           81.2          32.85         0.6968         -0.474          48.37          25.87         -68.19          80.12           72.7
    0.5062              -52.97          25.29          81.18          32.86         0.7002        -0.4751          48.32          25.89         -68.13          80.12           72.7
     0.536              -52.96          25.28          81.16          32.88          0.704        -0.4763          48.27          25.91         -68.07          80.12           72.7
    0.5657              -52.94          25.28          81.13           32.9         0.7081        -0.4776          48.21          25.92         -68.01          80.12          72.71
    0.5955              -52.92          25.27          81.11          32.92         0.7126         -0.479          48.15          25.95         -67.93          80.12          72.71
